<svg xmlns="http://www.w3.org/2000/svg" width="1040" height="538" viewBox="0 0 1040 538">
<rect width="1040" height="538" rx="14" fill="#14202a"/>
<g font-family="sans-serif"><text x="30" y="34" fill="#75e2ba" font-size="11" letter-spacing="1.6">SAM3D · MOTION STUDIO</text><text x="30" y="65" fill="#dbe5ed" font-size="24">Device wireframes</text>
<g transform="translate(30 87)"><rect width="480" height="404" rx="10" fill="#1d2b36" stroke="#304455"/><text x="20" y="30" fill="#dbe5ed" font-size="16">Handy 2</text><text x="20" y="51" fill="#94aabc" font-size="11">Sliding carriage · stroke only</text><g transform="translate(15 49)"><title>Handy 2 schematic wireframe</title><g fill="none" stroke-linecap="round" stroke-linejoin="round"><path d="M212.64 257.76L229.38 258.40" stroke="#486076" stroke-width="1.5"/>
<path d="M213.03 274.03L212.64 257.76" stroke="#486076" stroke-width="1.4"/>
<path d="M224.40 274.29L229.38 258.40" stroke="#486076" stroke-width="1.4"/>
<path d="M212.64 228.80L229.38 229.44" stroke="#597184" stroke-width="0.8"/>
<path d="M213.03 274.03L224.40 274.29" stroke="#486076" stroke-width="1.5"/>
<path d="M166.23 266.60L212.64 257.76" stroke="#486076" stroke-width="1.5"/>
<path d="M229.38 258.40L254.59 267.83" stroke="#486076" stroke-width="1.5"/>
<path d="M180.06 280.31L213.03 274.03" stroke="#486076" stroke-width="1.5"/>
<path d="M224.40 274.29L240.37 280.26" stroke="#486076" stroke-width="1.5"/>
<path d="M235.88 246.69L248.81 251.52" stroke="#eabf71" stroke-width="2"/>
<path d="M166.23 237.64L212.64 228.80" stroke="#597184" stroke-width="0.8"/>
<path d="M229.38 229.44L254.59 238.87" stroke="#597184" stroke-width="0.8"/>
<path d="M212.64 257.76L212.64 57.19" stroke="#486076" stroke-width="1.4"/>
<path d="M229.38 258.40L229.38 57.83" stroke="#486076" stroke-width="1.4"/>
<path d="M180.06 280.31L166.23 266.60" stroke="#486076" stroke-width="1.4"/>
<path d="M240.37 280.26L254.59 267.83" stroke="#486076" stroke-width="1.4"/>
<path d="M240.37 280.26L237.61 283.21" stroke="#486076" stroke-width="1.5"/>
<path d="M177.30 283.26L180.06 280.31" stroke="#486076" stroke-width="1.5"/>
<path d="M163.07 271.03L166.23 266.60" stroke="#486076" stroke-width="1.5"/>
<path d="M254.59 267.83L251.44 272.26" stroke="#486076" stroke-width="1.5"/>
<path d="M177.30 283.26L163.07 271.03" stroke="#486076" stroke-width="1.4"/>
<path d="M163.07 242.07L166.23 237.64" stroke="#597184" stroke-width="0.8"/>
<path d="M237.61 283.21L251.44 272.26" stroke="#486076" stroke-width="1.4"/>
<path d="M254.59 238.87L251.44 243.30" stroke="#597184" stroke-width="0.8"/>
<path d="M193.27 289.23L177.30 283.26" stroke="#486076" stroke-width="1.5"/>
<path d="M237.61 283.21L204.64 289.49" stroke="#486076" stroke-width="1.5"/>
<path d="M212.64 57.19L229.38 57.83" stroke="#486076" stroke-width="1.5"/>
<path d="M237.17 86.28L237.17 103.44" stroke="#597184" stroke-width="1.1"/>
<path d="M166.23 266.60L166.23 66.03" stroke="#486076" stroke-width="1.4"/>
<path d="M237.17 103.44L247.52 107.31" stroke="#597184" stroke-width="1.1"/>
<path d="M212.64 57.19L212.36 42.46" stroke="#486076" stroke-width="1.4"/>
<path d="M254.59 267.83L254.59 67.25" stroke="#486076" stroke-width="1.4"/>
<path d="M188.29 280.45L163.07 271.03" stroke="#486076" stroke-width="1.5"/>
<path d="M242.35 101.09L242.35 92.51" stroke="#597184" stroke-width="1"/>
<path d="M239.76 95.83L244.93 97.76" stroke="#597184" stroke-width="1"/>
<path d="M229.38 57.83L224.95 42.87" stroke="#486076" stroke-width="1.4"/>
<path d="M204.64 289.49L193.27 289.23" stroke="#486076" stroke-width="1.5"/>
<path d="M247.52 90.15L237.17 86.28" stroke="#597184" stroke-width="1.1"/>
<path d="M251.44 272.26L205.03 281.09" stroke="#486076" stroke-width="1.5"/>
<path d="M166.23 66.03L212.64 57.19" stroke="#486076" stroke-width="1.5"/>
<path d="M212.36 42.46L224.95 42.87" stroke="#486076" stroke-width="1.5"/>
<path d="M247.52 107.31L247.52 90.15" stroke="#597184" stroke-width="1.1"/>
<path d="M188.29 251.49L163.07 242.07" stroke="#597184" stroke-width="0.8"/>
<path d="M193.27 289.23L188.29 280.45" stroke="#486076" stroke-width="1.4"/>
<path d="M220.47 259.07L236.77 255.96" stroke="#597184" stroke-width="1.2"/>
<path d="M229.38 57.83L254.59 67.25" stroke="#486076" stroke-width="1.5"/>
<path d="M204.64 289.49L205.03 281.09" stroke="#486076" stroke-width="1.4"/>
<path d="M163.07 271.03L163.07 70.46" stroke="#486076" stroke-width="1.4"/>
<path d="M251.44 243.30L205.03 252.14" stroke="#597184" stroke-width="0.8"/>
<path d="M251.44 272.26L251.44 71.68" stroke="#486076" stroke-width="1.4"/>
<path d="M205.03 281.09L188.29 280.45" stroke="#486076" stroke-width="1.5"/>
<path d="M176.86 49.22L212.36 42.46" stroke="#486076" stroke-width="1.5"/>
<path d="M224.95 42.87L243.44 49.78" stroke="#486076" stroke-width="1.5"/>
<path d="M205.03 252.14L188.29 251.49" stroke="#597184" stroke-width="0.8"/>
<path d="M166.23 66.03L176.86 49.22" stroke="#486076" stroke-width="1.4"/>
<path d="M236.77 255.96L236.77 88.64" stroke="#597184" stroke-width="1.2"/>
<path d="M239.30 169.82L239.30 147.30" stroke="#75e2ba" stroke-width="1.4"/>
<path d="M239.30 169.82L244.47 171.75" stroke="#75e2ba" stroke-width="1.4"/>
<path d="M254.59 67.25L243.44 49.78" stroke="#486076" stroke-width="1.4"/>
<path d="M232.50 250.49L232.50 96.03" stroke="#597184" stroke-width="1"/>
<path d="M163.07 70.46L166.23 66.03" stroke="#486076" stroke-width="1.5"/>
<path d="M218.46 173.79L239.30 169.82" stroke="#75e2ba" stroke-width="1.4"/>
<path d="M254.59 67.25L251.44 71.68" stroke="#486076" stroke-width="1.5"/>
<path d="M225.26 251.87L225.26 97.41" stroke="#597184" stroke-width="1"/>
<path d="M239.30 147.30L244.47 149.23" stroke="#75e2ba" stroke-width="1.4"/>
<path d="M244.47 171.75L244.47 149.23" stroke="#75e2ba" stroke-width="1.4"/>
<path d="M174.23 52.53L176.86 49.22" stroke="#486076" stroke-width="1.5"/>
<path d="M255.25 205.16L260.25 205.25" stroke="#597184" stroke-width="1.7"/>
<path d="M250.27 205.33L255.25 205.16" stroke="#597184" stroke-width="1.7"/>
<path d="M242.66 168.34L242.66 153.33" stroke="#75e2ba" stroke-width="1.4"/>
<path d="M260.25 205.25L265.10 205.60" stroke="#597184" stroke-width="1.7"/>
<path d="M220.47 91.74L220.47 259.07" stroke="#597184" stroke-width="1.2"/>
<path d="M245.52 205.76L250.27 205.33" stroke="#597184" stroke-width="1.7"/>
<path d="M243.44 49.78L240.81 53.09" stroke="#486076" stroke-width="1.5"/>
<path d="M218.46 151.26L239.30 147.30" stroke="#75e2ba" stroke-width="1.4"/>
<path d="M265.10 205.60L269.59 206.19" stroke="#597184" stroke-width="1.7"/>
<path d="M242.66 168.34L249.12 170.76" stroke="#75e2ba" stroke-width="1.4"/>
<path d="M223.64 175.72L244.47 171.75" stroke="#75e2ba" stroke-width="1.4"/>
<path d="M241.17 206.43L245.52 205.76" stroke="#597184" stroke-width="1.7"/>
<path d="M163.07 70.46L174.23 52.53" stroke="#486076" stroke-width="1.4"/>
<path d="M225.45 171.62L242.66 168.34" stroke="#75e2ba" stroke-width="1.4"/>
<path d="M255.11 172.87L260.99 172.97" stroke="#75e2ba" stroke-width="1.7"/>
<path d="M249.27 173.07L255.11 172.87" stroke="#75e2ba" stroke-width="1.7"/>
<path d="M269.59 206.19L273.57 207.01" stroke="#597184" stroke-width="1.7"/>
<path d="M260.99 172.97L266.67 173.38" stroke="#75e2ba" stroke-width="1.7"/>
<path d="M243.69 173.57L249.27 173.07" stroke="#75e2ba" stroke-width="1.7"/>
<path d="M237.39 207.31L241.17 206.43" stroke="#597184" stroke-width="1.7"/>
<path d="M218.46 173.79L218.46 151.26" stroke="#75e2ba" stroke-width="1.4"/>
<path d="M251.44 71.68L240.81 53.09" stroke="#486076" stroke-width="1.4"/>
<path d="M242.66 153.33L249.12 155.74" stroke="#75e2ba" stroke-width="1.4"/>
<path d="M218.46 173.79L223.64 175.72" stroke="#75e2ba" stroke-width="1.4"/>
<path d="M266.67 173.38L271.95 174.08" stroke="#75e2ba" stroke-width="1.7"/>
<path d="M188.29 280.45L188.29 79.88" stroke="#486076" stroke-width="1.4"/>
<path d="M238.58 174.36L243.69 173.57" stroke="#75e2ba" stroke-width="1.7"/>
<path d="M225.45 156.61L242.66 153.33" stroke="#75e2ba" stroke-width="1.4"/>
<path d="M273.57 207.01L276.87 208.02" stroke="#597184" stroke-width="1.7"/>
<path d="M249.12 170.76L249.12 155.74" stroke="#75e2ba" stroke-width="1.4"/>
<path d="M223.64 153.20L244.47 149.23" stroke="#75e2ba" stroke-width="1.4"/>
<path d="M234.33 208.37L237.39 207.31" stroke="#597184" stroke-width="1.7"/>
<path d="M205.03 281.09L205.03 80.52" stroke="#486076" stroke-width="1.4"/>
<path d="M255.11 152.49L260.99 152.59" stroke="#75e2ba" stroke-width="1.7"/>
<path d="M249.27 152.69L255.11 152.49" stroke="#75e2ba" stroke-width="1.7"/>
<path d="M271.95 174.08L276.62 175.04" stroke="#75e2ba" stroke-width="1.7"/>
<path d="M260.99 152.59L266.67 153.00" stroke="#75e2ba" stroke-width="1.7"/>
<path d="M234.14 175.39L238.58 174.36" stroke="#75e2ba" stroke-width="1.7"/>
<path d="M243.69 153.19L249.27 152.69" stroke="#75e2ba" stroke-width="1.7"/>
<path d="M225.45 171.62L225.45 156.61" stroke="#75e2ba" stroke-width="1.4"/>
<path d="M276.87 208.02L279.37 209.18" stroke="#597184" stroke-width="1.7"/>
<path d="M238.58 174.36L238.58 153.98" stroke="#75e2ba" stroke-width="1.4"/>
<path d="M231.91 174.04L249.12 170.76" stroke="#75e2ba" stroke-width="1.4"/>
<path d="M266.67 153.00L271.95 153.70" stroke="#75e2ba" stroke-width="1.7"/>
<path d="M218.46 151.26L223.64 153.20" stroke="#75e2ba" stroke-width="1.4"/>
<path d="M223.64 175.72L223.64 153.20" stroke="#75e2ba" stroke-width="1.4"/>
<path d="M232.10 209.57L234.33 208.37" stroke="#597184" stroke-width="1.7"/>
<path d="M238.58 153.98L243.69 153.19" stroke="#75e2ba" stroke-width="1.7"/>
<path d="M276.62 175.04L280.49 176.22" stroke="#75e2ba" stroke-width="1.7"/>
<path d="M225.45 171.62L231.91 174.04" stroke="#75e2ba" stroke-width="1.4"/>
<path d="M230.55 176.63L234.14 175.39" stroke="#75e2ba" stroke-width="1.7"/>
<path d="M271.95 153.70L276.62 154.66" stroke="#75e2ba" stroke-width="1.7"/>
<path d="M279.37 209.18L280.98 210.45" stroke="#597184" stroke-width="1.7"/>
<path d="M234.14 155.01L238.58 153.98" stroke="#75e2ba" stroke-width="1.7"/>
<path d="M231.91 159.02L249.12 155.74" stroke="#75e2ba" stroke-width="1.4"/>
<path d="M241.17 206.43L241.17 113.11" stroke="#597184" stroke-width="1.4"/>
<path d="M192.72 59.44L174.23 52.53" stroke="#486076" stroke-width="1.5"/>
<path d="M230.79 210.86L232.10 209.57" stroke="#597184" stroke-width="1.7"/>
<path d="M188.29 79.88L163.07 70.46" stroke="#486076" stroke-width="1.5"/>
<path d="M236.77 88.64L220.47 91.74" stroke="#597184" stroke-width="1.2"/>
<path d="M225.45 156.61L231.91 159.02" stroke="#75e2ba" stroke-width="1.4"/>
<path d="M280.49 176.22L283.43 177.58" stroke="#75e2ba" stroke-width="1.7"/>
<path d="M280.49 176.22L280.49 155.84" stroke="#75e2ba" stroke-width="1.4"/>
<path d="M240.81 53.09L205.31 59.85" stroke="#486076" stroke-width="1.5"/>
<path d="M276.62 154.66L280.49 155.84" stroke="#75e2ba" stroke-width="1.7"/>
<path d="M227.93 178.04L230.55 176.63" stroke="#75e2ba" stroke-width="1.7"/>
<path d="M231.91 174.04L231.91 159.02" stroke="#75e2ba" stroke-width="1.4"/>
<path d="M230.55 156.26L234.14 155.01" stroke="#75e2ba" stroke-width="1.7"/>
<path d="M280.98 210.45L281.62 211.77" stroke="#597184" stroke-width="1.7"/>
<path d="M251.44 71.68L205.03 80.52" stroke="#486076" stroke-width="1.5"/>
<path d="M230.45 212.20L230.79 210.86" stroke="#597184" stroke-width="1.7"/>
<path d="M276.87 208.02L276.87 114.70" stroke="#597184" stroke-width="1.4"/>
<path d="M283.43 177.58L285.31 179.07" stroke="#75e2ba" stroke-width="1.7"/>
<path d="M280.49 155.84L283.43 157.20" stroke="#75e2ba" stroke-width="1.7"/>
<path d="M226.40 179.56L227.93 178.04" stroke="#75e2ba" stroke-width="1.7"/>
<path d="M255.25 111.84L260.25 111.93" stroke="#597184" stroke-width="1.7"/>
<path d="M227.93 157.66L230.55 156.26" stroke="#75e2ba" stroke-width="1.7"/>
<path d="M250.27 112.02L255.25 111.84" stroke="#597184" stroke-width="1.7"/>
<path d="M281.62 211.77L281.29 213.11" stroke="#597184" stroke-width="1.7"/>
<path d="M260.25 111.93L265.10 112.28" stroke="#597184" stroke-width="1.7"/>
<path d="M245.52 112.45L250.27 112.02" stroke="#597184" stroke-width="1.7"/>
<path d="M231.10 213.52L230.45 212.20" stroke="#597184" stroke-width="1.7"/>
<path d="M265.10 112.28L269.59 112.88" stroke="#597184" stroke-width="1.7"/>
<path d="M241.17 113.11L245.52 112.45" stroke="#597184" stroke-width="1.7"/>
<path d="M285.31 179.07L286.07 180.63" stroke="#75e2ba" stroke-width="1.7"/>
<path d="M283.43 157.20L285.31 158.69" stroke="#75e2ba" stroke-width="1.7"/>
<path d="M269.59 112.88L273.57 113.69" stroke="#597184" stroke-width="1.7"/>
<path d="M281.29 213.11L279.98 214.40" stroke="#597184" stroke-width="1.7"/>
<path d="M205.31 59.85L192.72 59.44" stroke="#486076" stroke-width="1.5"/>
<path d="M226.00 181.13L226.40 179.56" stroke="#75e2ba" stroke-width="1.7"/>
<path d="M226.40 159.18L227.93 157.66" stroke="#75e2ba" stroke-width="1.7"/>
<path d="M237.39 113.99L241.17 113.11" stroke="#597184" stroke-width="1.7"/>
<path d="M232.70 214.79L231.10 213.52" stroke="#597184" stroke-width="1.7"/>
<path d="M188.29 79.88L192.72 59.44" stroke="#486076" stroke-width="1.4"/>
<path d="M273.57 113.69L276.87 114.70" stroke="#597184" stroke-width="1.7"/>
<path d="M205.03 80.52L205.31 59.85" stroke="#486076" stroke-width="1.4"/>
<path d="M285.31 158.69L286.07 160.25" stroke="#75e2ba" stroke-width="1.7"/>
<path d="M286.07 180.63L285.68 182.20" stroke="#75e2ba" stroke-width="1.7"/>
<path d="M234.33 115.05L237.39 113.99" stroke="#597184" stroke-width="1.7"/>
<path d="M279.98 214.40L277.75 215.60" stroke="#597184" stroke-width="1.7"/>
<path d="M205.03 80.52L188.29 79.88" stroke="#486076" stroke-width="1.5"/>
<path d="M235.21 215.95L232.70 214.79" stroke="#597184" stroke-width="1.7"/>
<path d="M226.00 160.75L226.40 159.18" stroke="#75e2ba" stroke-width="1.7"/>
<path d="M226.76 182.69L226.00 181.13" stroke="#75e2ba" stroke-width="1.7"/>
<path d="M276.87 114.70L279.37 115.86" stroke="#597184" stroke-width="1.7"/>
<path d="M232.10 116.25L234.33 115.05" stroke="#597184" stroke-width="1.7"/>
<path d="M277.75 215.60L274.69 216.66" stroke="#597184" stroke-width="1.7"/>
<path d="M285.68 182.20L284.14 183.72" stroke="#75e2ba" stroke-width="1.7"/>
<path d="M238.51 216.96L235.21 215.95" stroke="#597184" stroke-width="1.7"/>
<path d="M286.07 160.25L285.68 161.82" stroke="#75e2ba" stroke-width="1.7"/>
<path d="M228.65 184.17L226.76 182.69" stroke="#75e2ba" stroke-width="1.7"/>
<path d="M226.76 162.31L226.00 160.75" stroke="#75e2ba" stroke-width="1.7"/>
<path d="M279.37 115.86L280.98 117.13" stroke="#597184" stroke-width="1.7"/>
<path d="M274.69 216.66L270.91 217.54" stroke="#597184" stroke-width="1.7"/>
<path d="M230.79 117.54L232.10 116.25" stroke="#597184" stroke-width="1.7"/>
<path d="M242.48 217.78L238.51 216.96" stroke="#597184" stroke-width="1.7"/>
<path d="M270.91 217.54L266.56 218.21" stroke="#597184" stroke-width="1.7"/>
<path d="M284.14 183.72L281.53 185.12" stroke="#75e2ba" stroke-width="1.7"/>
<path d="M285.68 161.82L284.14 163.34" stroke="#75e2ba" stroke-width="1.7"/>
<path d="M246.98 218.37L242.48 217.78" stroke="#597184" stroke-width="1.7"/>
<path d="M280.98 117.13L281.62 118.46" stroke="#597184" stroke-width="1.7"/>
<path d="M231.58 185.54L228.65 184.17" stroke="#75e2ba" stroke-width="1.7"/>
<path d="M266.56 218.21L261.81 218.64" stroke="#597184" stroke-width="1.7"/>
<path d="M228.65 163.79L226.76 162.31" stroke="#75e2ba" stroke-width="1.7"/>
<path d="M251.82 218.72L246.98 218.37" stroke="#597184" stroke-width="1.7"/>
<path d="M230.45 118.88L230.79 117.54" stroke="#597184" stroke-width="1.7"/>
<path d="M261.81 218.64L256.83 218.81" stroke="#597184" stroke-width="1.7"/>
<path d="M256.83 218.81L251.82 218.72" stroke="#597184" stroke-width="1.7"/>
<path d="M281.53 185.12L277.93 186.37" stroke="#75e2ba" stroke-width="1.7"/>
<path d="M284.14 163.34L281.53 164.74" stroke="#75e2ba" stroke-width="1.7"/>
<path d="M235.21 215.95L235.21 122.64" stroke="#597184" stroke-width="1.4"/>
<path d="M281.62 118.46L281.29 119.79" stroke="#597184" stroke-width="1.7"/>
<path d="M235.46 186.72L231.58 185.54" stroke="#75e2ba" stroke-width="1.7"/>
<path d="M231.58 185.54L231.58 165.16" stroke="#75e2ba" stroke-width="1.4"/>
<path d="M231.58 165.16L228.65 163.79" stroke="#75e2ba" stroke-width="1.7"/>
<path d="M231.10 120.21L230.45 118.88" stroke="#597184" stroke-width="1.7"/>
<path d="M277.93 186.37L273.50 187.40" stroke="#75e2ba" stroke-width="1.7"/>
<path d="M240.13 187.68L235.46 186.72" stroke="#75e2ba" stroke-width="1.7"/>
<path d="M281.53 164.74L277.93 165.99" stroke="#75e2ba" stroke-width="1.7"/>
<path d="M281.29 119.79L279.98 121.09" stroke="#597184" stroke-width="1.7"/>
<path d="M270.91 217.54L270.91 124.23" stroke="#597184" stroke-width="1.4"/>
<path d="M235.46 166.34L231.58 165.16" stroke="#75e2ba" stroke-width="1.7"/>
<path d="M273.50 187.40L268.39 188.19" stroke="#75e2ba" stroke-width="1.7"/>
<path d="M232.70 121.48L231.10 120.21" stroke="#597184" stroke-width="1.7"/>
<path d="M245.40 188.38L240.13 187.68" stroke="#75e2ba" stroke-width="1.7"/>
<path d="M273.50 187.40L273.50 167.02" stroke="#eabf71" stroke-width="3"/>
<path d="M273.50 187.40L273.50 167.02" stroke="#75e2ba" stroke-width="1.4"/>
<path d="M268.39 188.19L262.81 188.69" stroke="#75e2ba" stroke-width="1.7"/>
<path d="M277.93 165.99L273.50 167.02" stroke="#75e2ba" stroke-width="1.7"/>
<path d="M251.09 188.78L245.40 188.38" stroke="#75e2ba" stroke-width="1.7"/>
<path d="M279.98 121.09L277.75 122.28" stroke="#597184" stroke-width="1.7"/>
<path d="M240.13 167.30L235.46 166.34" stroke="#75e2ba" stroke-width="1.7"/>
<path d="M262.81 188.69L256.97 188.89" stroke="#75e2ba" stroke-width="1.7"/>
<path d="M256.97 188.89L251.09 188.78" stroke="#75e2ba" stroke-width="1.7"/>
<path d="M235.21 122.64L232.70 121.48" stroke="#597184" stroke-width="1.7"/>
<path d="M273.50 167.02L268.39 167.81" stroke="#75e2ba" stroke-width="1.7"/>
<path d="M245.40 168.00L240.13 167.30" stroke="#75e2ba" stroke-width="1.7"/>
<path d="M277.75 122.28L274.69 123.35" stroke="#597184" stroke-width="1.7"/>
<path d="M268.39 167.81L262.81 168.31" stroke="#75e2ba" stroke-width="1.7"/>
<path d="M238.51 123.64L235.21 122.64" stroke="#597184" stroke-width="1.7"/>
<path d="M251.09 168.41L245.40 168.00" stroke="#75e2ba" stroke-width="1.7"/>
<path d="M262.81 168.31L256.97 168.51" stroke="#75e2ba" stroke-width="1.7"/>
<path d="M256.97 168.51L251.09 168.41" stroke="#75e2ba" stroke-width="1.7"/>
<path d="M274.69 123.35L270.91 124.23" stroke="#597184" stroke-width="1.7"/>
<path d="M242.48 124.46L238.51 123.64" stroke="#597184" stroke-width="1.7"/>
<path d="M270.91 124.23L266.56 124.89" stroke="#597184" stroke-width="1.7"/>
<path d="M246.98 125.05L242.48 124.46" stroke="#597184" stroke-width="1.7"/>
<path d="M266.56 124.89L261.81 125.32" stroke="#597184" stroke-width="1.7"/>
<path d="M251.82 125.40L246.98 125.05" stroke="#597184" stroke-width="1.7"/>
<path d="M261.81 125.32L256.83 125.49" stroke="#597184" stroke-width="1.7"/>
<path d="M256.83 125.49L251.82 125.40" stroke="#597184" stroke-width="1.7"/></g></g><text x="20" y="383" fill="#75e2ba" font-size="11">L0 60 · 125 mm full carriage travel</text></g><g transform="translate(530 87)"><rect width="480" height="404" rx="10" fill="#1d2b36" stroke="#304455"/><text x="20" y="30" fill="#dbe5ed" font-size="16">SR6</text><text x="20" y="51" fill="#94aabc" font-size="11">Six arm linkages + twist receiver</text><g transform="translate(15 49)"><title>SR6 + twist receiver schematic wireframe</title><g fill="none" stroke-linecap="round" stroke-linejoin="round"><path d="M222.90 204.61L222.90 194.24" stroke="#486076" stroke-width="1.4"/>
<path d="M222.90 204.61L251.02 215.11" stroke="#486076" stroke-width="1.4"/>
<path d="M222.90 194.24L251.02 204.75" stroke="#486076" stroke-width="1.4"/>
<path d="M222.07 198.06L233.52 202.34" stroke="#486076" stroke-width="1.4"/>
<path d="M222.07 198.06L222.07 79.75" stroke="#486076" stroke-width="1.4"/>
<path d="M220.87 174.15L220.87 149.97" stroke="#597184" stroke-width="1.4"/>
<path d="M194.93 189.55L194.93 184.37" stroke="#597184" stroke-width="1"/>
<path d="M190.55 190.39L194.93 189.55" stroke="#597184" stroke-width="1"/>
<path d="M240.14 103.97L240.14 77.20" stroke="#597184" stroke-width="1.4"/>
<path d="M194.93 184.37L190.55 185.20" stroke="#597184" stroke-width="1"/>
<path d="M196.80 178.74L220.87 174.15" stroke="#597184" stroke-width="1.4"/>
<path d="M251.02 215.11L251.02 204.75" stroke="#486076" stroke-width="1.4"/>
<path d="M190.55 185.20L190.55 190.39" stroke="#597184" stroke-width="1"/>
<path d="M219.72 107.86L240.14 103.97" stroke="#597184" stroke-width="1.4"/>
<path d="M220.87 174.15L240.13 181.35" stroke="#597184" stroke-width="1.4"/>
<path d="M220.87 132.70L220.87 108.52" stroke="#597184" stroke-width="1.4"/>
<path d="M196.80 154.56L220.87 149.97" stroke="#597184" stroke-width="1.4"/>
<path d="M233.52 202.34L233.52 84.03" stroke="#486076" stroke-width="1.4"/>
<path d="M240.14 103.97L259.93 111.37" stroke="#597184" stroke-width="1.4"/>
<path d="M219.72 81.09L240.14 77.20" stroke="#597184" stroke-width="1.4"/>
<path d="M79.23 231.97L222.90 204.61" stroke="#486076" stroke-width="1.4"/>
<path d="M220.87 149.97L240.13 157.17" stroke="#597184" stroke-width="1.4"/>
<path d="M196.80 137.28L220.87 132.70" stroke="#597184" stroke-width="1.4"/>
<path d="M196.80 178.74L196.80 154.56" stroke="#597184" stroke-width="1.4"/>
<path d="M219.72 107.86L219.72 81.09" stroke="#597184" stroke-width="1.4"/>
<path d="M79.23 221.60L222.90 194.24" stroke="#486076" stroke-width="1.4"/>
<path d="M240.14 77.20L259.93 84.59" stroke="#597184" stroke-width="1.4"/>
<path d="M222.07 79.75L233.52 84.03" stroke="#486076" stroke-width="1.4"/>
<path d="M220.87 132.70L240.13 139.90" stroke="#597184" stroke-width="1.4"/>
<path d="M196.80 113.10L220.87 108.52" stroke="#597184" stroke-width="1.4"/>
<path d="M91.52 222.92L222.07 198.06" stroke="#486076" stroke-width="1.4"/>
<path d="M240.13 181.35L240.13 157.17" stroke="#597184" stroke-width="1.4"/>
<path d="M196.80 178.74L216.06 185.93" stroke="#597184" stroke-width="1.4"/>
<path d="M194.93 103.19L194.93 98.01" stroke="#597184" stroke-width="1"/>
<path d="M251.25 157.43L255.63 156.59" stroke="#8aa8b5" stroke-width="1.6"/>
<path d="M229.36 215.87L233.74 215.03" stroke="#8aa8b5" stroke-width="1.6"/>
<path d="M190.55 104.02L194.93 103.19" stroke="#597184" stroke-width="1"/>
<path d="M219.72 107.86L239.51 115.26" stroke="#597184" stroke-width="1.4"/>
<path d="M220.87 108.52L240.13 115.72" stroke="#597184" stroke-width="1.4"/>
<path d="M196.80 137.28L196.80 113.10" stroke="#597184" stroke-width="1.4"/>
<path d="M229.50 170.84L233.74 215.03" stroke="#8aa8b5" stroke-width="1.6"/>
<path d="M194.93 98.01L190.55 98.84" stroke="#597184" stroke-width="1"/>
<path d="M190.55 98.84L190.55 104.02" stroke="#597184" stroke-width="1"/>
<path d="M251.38 99.31L255.63 156.59" stroke="#8aa8b5" stroke-width="1.6"/>
<path d="M259.93 111.37L259.93 84.59" stroke="#597184" stroke-width="1.4"/>
<path d="M216.06 185.93L240.13 181.35" stroke="#597184" stroke-width="1.4"/>
<path d="M225.13 171.68L229.36 215.87" stroke="#8aa8b5" stroke-width="1.6"/>
<path d="M196.80 154.56L216.06 161.75" stroke="#597184" stroke-width="1.4"/>
<path d="M247.01 100.15L251.25 157.43" stroke="#8aa8b5" stroke-width="1.6"/>
<path d="M239.51 115.26L259.93 111.37" stroke="#597184" stroke-width="1.4"/>
<path d="M219.72 81.09L239.51 88.48" stroke="#597184" stroke-width="1.4"/>
<path d="M240.13 139.90L240.13 115.72" stroke="#597184" stroke-width="1.4"/>
<path d="M216.06 161.75L240.13 157.17" stroke="#597184" stroke-width="1.4"/>
<path d="M196.80 137.28L216.06 144.48" stroke="#597184" stroke-width="1.4"/>
<path d="M102.97 227.20L233.52 202.34" stroke="#486076" stroke-width="1.4"/>
<path d="M239.51 88.48L259.93 84.59" stroke="#597184" stroke-width="1.4"/>
<path d="M216.06 144.48L240.13 139.90" stroke="#597184" stroke-width="1.4"/>
<path d="M216.06 185.93L216.06 161.75" stroke="#597184" stroke-width="1.4"/>
<path d="M196.80 113.10L216.06 120.30" stroke="#597184" stroke-width="1.4"/>
<path d="M239.51 115.26L239.51 88.48" stroke="#597184" stroke-width="1.4"/>
<path d="M229.50 129.39L228.82 85.97" stroke="#8aa8b5" stroke-width="1.6"/>
<path d="M216.06 120.30L240.13 115.72" stroke="#597184" stroke-width="1.4"/>
<path d="M225.13 130.22L224.44 86.80" stroke="#8aa8b5" stroke-width="1.6"/>
<path d="M121.99 203.44L121.99 198.26" stroke="#597184" stroke-width="1"/>
<path d="M107.34 242.47L251.02 215.11" stroke="#486076" stroke-width="1.4"/>
<path d="M117.62 204.27L121.99 203.44" stroke="#597184" stroke-width="1"/>
<path d="M216.06 144.48L216.06 120.30" stroke="#597184" stroke-width="1.4"/>
<path d="M121.99 198.26L117.62 199.09" stroke="#597184" stroke-width="1"/>
<path d="M224.44 86.80L228.82 85.97" stroke="#8aa8b5" stroke-width="1.6"/>
<path d="M117.62 199.09L117.62 204.27" stroke="#597184" stroke-width="1"/>
<path d="M107.34 232.11L251.02 204.75" stroke="#486076" stroke-width="1.4"/>
<path d="M91.52 104.60L222.07 79.75" stroke="#486076" stroke-width="1.4"/>
<path d="M79.23 231.97L79.23 221.60" stroke="#486076" stroke-width="1.4"/>
<path d="M124.60 192.49L124.60 168.30" stroke="#597184" stroke-width="1.4"/>
<path d="M100.53 197.07L124.60 192.49" stroke="#597184" stroke-width="1.4"/>
<path d="M102.97 108.88L233.52 84.03" stroke="#486076" stroke-width="1.4"/>
<path d="M124.60 192.49L143.86 199.68" stroke="#597184" stroke-width="1.4"/>
<path d="M121.99 117.08L121.99 111.89" stroke="#597184" stroke-width="1"/>
<path d="M117.62 117.91L121.99 117.08" stroke="#597184" stroke-width="1"/>
<path d="M124.60 151.03L124.60 126.85" stroke="#597184" stroke-width="1.4"/>
<path d="M100.53 172.89L124.60 168.30" stroke="#597184" stroke-width="1.4"/>
<path d="M91.52 222.92L102.97 227.20" stroke="#486076" stroke-width="1.4"/>
<path d="M121.99 111.89L117.62 112.73" stroke="#597184" stroke-width="1"/>
<path d="M117.62 112.73L117.62 117.91" stroke="#597184" stroke-width="1"/>
<path d="M124.60 168.30L143.86 175.50" stroke="#597184" stroke-width="1.4"/>
<path d="M100.53 155.61L124.60 151.03" stroke="#597184" stroke-width="1.4"/>
<path d="M100.53 197.07L100.53 172.89" stroke="#597184" stroke-width="1.4"/>
<path d="M79.23 231.97L107.34 242.47" stroke="#486076" stroke-width="1.4"/>
<path d="M79.23 221.60L107.34 232.11" stroke="#486076" stroke-width="1.4"/>
<path d="M231.55 215.45L304.97 177.42" stroke="#8aa8b5" stroke-width="2"/>
<path d="M91.52 222.92L91.52 104.60" stroke="#486076" stroke-width="1.4"/>
<path d="M124.60 151.03L143.86 158.23" stroke="#597184" stroke-width="1.4"/>
<path d="M100.53 131.43L124.60 126.85" stroke="#597184" stroke-width="1.4"/>
<path d="M131.75 234.00L136.12 233.17" stroke="#8aa8b5" stroke-width="1.6"/>
<path d="M143.86 199.68L143.86 175.50" stroke="#597184" stroke-width="1.4"/>
<path d="M100.53 197.07L119.79 204.27" stroke="#597184" stroke-width="1.4"/>
<path d="M133.23 189.18L136.12 233.17" stroke="#8aa8b5" stroke-width="1.6"/>
<path d="M124.60 126.85L143.86 134.05" stroke="#597184" stroke-width="1.4"/>
<path d="M100.53 155.61L100.53 131.43" stroke="#597184" stroke-width="1.4"/>
<path d="M128.86 190.01L131.75 234.00" stroke="#8aa8b5" stroke-width="1.6"/>
<path d="M119.79 204.27L143.86 199.68" stroke="#597184" stroke-width="1.4"/>
<path d="M100.53 172.89L119.79 180.08" stroke="#597184" stroke-width="1.4"/>
<path d="M100.11 130.64L100.11 103.87" stroke="#597184" stroke-width="1.4"/>
<path d="M102.97 227.20L102.97 108.88" stroke="#486076" stroke-width="1.4"/>
<path d="M79.69 134.53L100.11 130.64" stroke="#597184" stroke-width="1.4"/>
<path d="M226.63 86.38L304.72 162.17" stroke="#8aa8b5" stroke-width="2"/>
<path d="M143.86 158.23L143.86 134.05" stroke="#597184" stroke-width="1.4"/>
<path d="M107.34 242.47L107.34 232.11" stroke="#486076" stroke-width="1.4"/>
<path d="M119.79 180.08L143.86 175.50" stroke="#597184" stroke-width="1.4"/>
<path d="M100.53 155.61L119.79 162.81" stroke="#597184" stroke-width="1.4"/>
<path d="M253.44 157.01L285.69 138.90" stroke="#8aa8b5" stroke-width="2"/>
<path d="M119.79 162.81L143.86 158.23" stroke="#597184" stroke-width="1.4"/>
<path d="M119.79 204.27L119.79 180.08" stroke="#597184" stroke-width="1.4"/>
<path d="M100.11 130.64L119.90 138.03" stroke="#597184" stroke-width="1.4"/>
<path d="M100.53 131.43L119.79 138.63" stroke="#597184" stroke-width="1.4"/>
<path d="M79.69 107.76L100.11 103.87" stroke="#597184" stroke-width="1.4"/>
<path d="M91.52 104.60L102.97 108.88" stroke="#486076" stroke-width="1.4"/>
<path d="M79.69 134.53L79.69 107.76" stroke="#597184" stroke-width="1.4"/>
<path d="M119.79 138.63L143.86 134.05" stroke="#597184" stroke-width="1.4"/>
<path d="M133.23 147.72L133.81 104.76" stroke="#8aa8b5" stroke-width="1.6"/>
<path d="M100.11 103.87L119.90 111.26" stroke="#597184" stroke-width="1.4"/>
<path d="M128.86 148.55L129.43 105.60" stroke="#8aa8b5" stroke-width="1.6"/>
<path d="M119.79 162.81L119.79 138.63" stroke="#597184" stroke-width="1.4"/>
<path d="M233.12 168.82L232.76 146.80" stroke="#597184" stroke-width="1.4"/>
<path d="M111.22 184.09L115.59 183.26" stroke="#8aa8b5" stroke-width="1.6"/>
<path d="M129.43 105.60L133.81 104.76" stroke="#8aa8b5" stroke-width="1.6"/>
<path d="M79.69 134.53L99.48 141.92" stroke="#597184" stroke-width="1.4"/>
<path d="M211.26 174.24L233.12 168.82" stroke="#597184" stroke-width="1.4"/>
<path d="M233.12 168.82L245.12 174.11" stroke="#597184" stroke-width="1.4"/>
<path d="M111.35 125.98L115.59 183.26" stroke="#8aa8b5" stroke-width="1.6"/>
<path d="M119.90 138.03L119.90 111.26" stroke="#597184" stroke-width="1.4"/>
<path d="M106.98 126.81L111.22 184.09" stroke="#8aa8b5" stroke-width="1.6"/>
<path d="M99.48 141.92L119.90 138.03" stroke="#597184" stroke-width="1.4"/>
<path d="M79.69 107.76L99.48 115.15" stroke="#597184" stroke-width="1.4"/>
<path d="M210.90 152.22L232.76 146.80" stroke="#597184" stroke-width="1.4"/>
<path d="M259.05 173.56L267.99 173.62" stroke="#75e2ba" stroke-width="1.7"/>
<path d="M250.17 174.07L259.05 173.56" stroke="#75e2ba" stroke-width="1.7"/>
<path d="M232.76 146.80L244.76 152.09" stroke="#597184" stroke-width="1.4"/>
<path d="M267.99 173.62L276.64 174.26" stroke="#75e2ba" stroke-width="1.7"/>
<path d="M241.69 175.14L250.17 174.07" stroke="#75e2ba" stroke-width="1.7"/>
<path d="M211.26 174.24L210.90 152.22" stroke="#597184" stroke-width="1.4"/>
<path d="M99.48 115.15L119.90 111.26" stroke="#597184" stroke-width="1.4"/>
<path d="M276.64 174.26L284.68 175.43" stroke="#75e2ba" stroke-width="1.7"/>
<path d="M245.12 174.11L244.76 152.09" stroke="#597184" stroke-width="1.4"/>
<path d="M258.80 158.32L267.74 158.38" stroke="#75e2ba" stroke-width="1.7"/>
<path d="M249.92 158.83L258.80 158.32" stroke="#75e2ba" stroke-width="1.7"/>
<path d="M233.93 176.71L241.69 175.14" stroke="#75e2ba" stroke-width="1.7"/>
<path d="M267.74 158.38L276.39 159.01" stroke="#75e2ba" stroke-width="1.7"/>
<path d="M241.44 159.89L249.92 158.83" stroke="#75e2ba" stroke-width="1.7"/>
<path d="M211.26 174.24L223.26 179.54" stroke="#597184" stroke-width="1.4"/>
<path d="M99.48 141.92L99.48 115.15" stroke="#597184" stroke-width="1.4"/>
<path d="M223.26 179.54L245.12 174.11" stroke="#597184" stroke-width="1.4"/>
<path d="M303.37 176.63L303.07 158.00" stroke="#75e2ba" stroke-width="1.4"/>
<path d="M284.68 175.43L291.78 177.11" stroke="#75e2ba" stroke-width="1.7"/>
<path d="M290.99 179.71L303.37 176.63" stroke="#75e2ba" stroke-width="1.4"/>
<path d="M276.39 159.01L284.43 160.19" stroke="#75e2ba" stroke-width="1.7"/>
<path d="M233.93 176.71L233.68 161.47" stroke="#75e2ba" stroke-width="1.4"/>
<path d="M227.19 178.74L233.93 176.71" stroke="#75e2ba" stroke-width="1.7"/>
<path d="M303.37 176.63L311.72 180.32" stroke="#75e2ba" stroke-width="1.4"/>
<path d="M233.68 161.47L241.44 159.89" stroke="#75e2ba" stroke-width="1.7"/>
<path d="M253.81 162.89L261.16 162.61" stroke="#75e2ba" stroke-width="1.7"/>
<path d="M261.16 162.61L268.49 162.79" stroke="#75e2ba" stroke-width="1.7"/>
<path d="M246.70 163.65L253.81 162.89" stroke="#75e2ba" stroke-width="1.7"/>
<path d="M268.49 162.79L275.49 163.44" stroke="#75e2ba" stroke-width="1.7"/>
<path d="M284.43 160.19L291.53 161.87" stroke="#75e2ba" stroke-width="1.7"/>
<path d="M291.78 177.11L297.69 179.22" stroke="#75e2ba" stroke-width="1.7"/>
<path d="M210.90 152.22L222.90 157.52" stroke="#597184" stroke-width="1.4"/>
<path d="M253.67 154.43L261.02 154.14" stroke="#75e2ba" stroke-width="1.7"/>
<path d="M261.02 154.14L268.35 154.32" stroke="#75e2ba" stroke-width="1.7"/>
<path d="M133.94 233.59L216.10 199.49" stroke="#8aa8b5" stroke-width="2"/>
<path d="M222.90 157.52L244.76 152.09" stroke="#597184" stroke-width="1.4"/>
<path d="M226.94 163.49L233.68 161.47" stroke="#75e2ba" stroke-width="1.7"/>
<path d="M290.69 161.08L303.07 158.00" stroke="#75e2ba" stroke-width="1.4"/>
<path d="M240.12 164.83L246.70 163.65" stroke="#75e2ba" stroke-width="1.7"/>
<path d="M246.56 155.18L253.67 154.43" stroke="#75e2ba" stroke-width="1.7"/>
<path d="M221.74 181.13L227.19 178.74" stroke="#75e2ba" stroke-width="1.7"/>
<path d="M275.49 163.44L275.36 154.97" stroke="#75e2ba" stroke-width="1.4"/>
<path d="M290.99 179.71L290.69 161.08" stroke="#75e2ba" stroke-width="1.4"/>
<path d="M275.49 163.44L281.92 164.53" stroke="#75e2ba" stroke-width="1.7"/>
<path d="M268.35 154.32L275.36 154.97" stroke="#75e2ba" stroke-width="1.7"/>
<path d="M303.07 158.00L311.42 161.68" stroke="#75e2ba" stroke-width="1.4"/>
<path d="M269.16 141.62L279.79 169.77" stroke="#75e2ba" stroke-width="1.5"/>
<path d="M239.98 156.36L246.56 155.18" stroke="#75e2ba" stroke-width="1.7"/>
<path d="M290.99 179.71L299.34 183.39" stroke="#75e2ba" stroke-width="1.4"/>
<path d="M223.26 179.54L222.90 157.52" stroke="#597184" stroke-width="1.4"/>
<path d="M311.72 180.32L311.42 161.68" stroke="#75e2ba" stroke-width="1.4"/>
<path d="M234.31 166.40L240.12 164.83" stroke="#75e2ba" stroke-width="1.7"/>
<path d="M275.36 154.97L281.78 156.06" stroke="#75e2ba" stroke-width="1.7"/>
<path d="M291.53 161.87L297.44 163.98" stroke="#75e2ba" stroke-width="1.7"/>
<path d="M299.34 183.39L311.72 180.32" stroke="#75e2ba" stroke-width="1.4"/>
<path d="M297.69 179.22L297.44 163.98" stroke="#75e2ba" stroke-width="1.4"/>
<path d="M281.92 164.53L287.52 166.01" stroke="#75e2ba" stroke-width="1.7"/>
<path d="M297.69 179.22L302.16 181.69" stroke="#75e2ba" stroke-width="1.7"/>
<path d="M221.49 165.89L226.94 163.49" stroke="#75e2ba" stroke-width="1.7"/>
<path d="M254.91 156.71L260.86 156.48" stroke="#597184" stroke-width="1.7"/>
<path d="M260.86 156.48L266.79 156.63" stroke="#597184" stroke-width="1.7"/>
<path d="M234.17 157.93L239.98 156.36" stroke="#75e2ba" stroke-width="1.7"/>
<path d="M249.16 157.32L254.91 156.71" stroke="#597184" stroke-width="1.7"/>
<path d="M266.79 156.63L272.47 157.15" stroke="#597184" stroke-width="1.7"/>
<path d="M217.77 183.81L221.74 181.13" stroke="#75e2ba" stroke-width="1.7"/>
<path d="M281.78 156.06L287.38 157.55" stroke="#75e2ba" stroke-width="1.7"/>
<path d="M229.50 168.29L234.31 166.40" stroke="#75e2ba" stroke-width="1.7"/>
<path d="M243.83 158.28L249.16 157.32" stroke="#597184" stroke-width="1.7"/>
<path d="M290.69 161.08L299.03 164.76" stroke="#75e2ba" stroke-width="1.4"/>
<path d="M272.47 157.15L277.67 158.03" stroke="#597184" stroke-width="1.7"/>
<path d="M287.52 166.01L292.07 167.84" stroke="#75e2ba" stroke-width="1.7"/>
<path d="M299.03 164.76L311.42 161.68" stroke="#75e2ba" stroke-width="1.4"/>
<path d="M297.44 163.98L301.91 166.45" stroke="#75e2ba" stroke-width="1.7"/>
<path d="M229.37 159.83L234.17 157.93" stroke="#75e2ba" stroke-width="1.7"/>
<path d="M299.34 183.39L299.03 164.76" stroke="#75e2ba" stroke-width="1.4"/>
<path d="M239.13 159.55L243.83 158.28" stroke="#597184" stroke-width="1.7"/>
<path d="M287.38 157.55L291.93 159.37" stroke="#75e2ba" stroke-width="1.7"/>
<path d="M277.67 158.03L282.20 159.24" stroke="#597184" stroke-width="1.7"/>
<path d="M217.52 168.57L221.49 165.89" stroke="#75e2ba" stroke-width="1.7"/>
<path d="M302.16 181.69L305.04 184.42" stroke="#75e2ba" stroke-width="1.7"/>
<path d="M225.88 170.44L229.50 168.29" stroke="#75e2ba" stroke-width="1.7"/>
<path d="M215.45 186.67L217.77 183.81" stroke="#75e2ba" stroke-width="1.7"/>
<path d="M235.23 161.08L239.13 159.55" stroke="#597184" stroke-width="1.7"/>
<path d="M292.07 167.84L295.40 169.94" stroke="#75e2ba" stroke-width="1.7"/>
<path d="M282.20 159.24L285.88 160.72" stroke="#597184" stroke-width="1.7"/>
<path d="M225.74 161.98L229.37 159.83" stroke="#75e2ba" stroke-width="1.7"/>
<path d="M131.62 105.18L215.85 184.24" stroke="#8aa8b5" stroke-width="2"/>
<path d="M225.88 170.44L225.74 161.98" stroke="#75e2ba" stroke-width="1.4"/>
<path d="M301.91 166.45L304.79 169.17" stroke="#75e2ba" stroke-width="1.7"/>
<path d="M291.93 159.37L295.26 161.48" stroke="#75e2ba" stroke-width="1.7"/>
<path d="M291.25 174.05L282.18 146.48" stroke="#75e2ba" stroke-width="1.5"/>
<path d="M113.41 183.67L246.36 148.67" stroke="#8aa8b5" stroke-width="2"/>
<path d="M272.47 157.15L271.36 89.40" stroke="#597184" stroke-width="1.4"/>
<path d="M232.30 162.82L235.23 161.08" stroke="#597184" stroke-width="1.7"/>
<path d="M223.58 172.77L225.88 170.44" stroke="#75e2ba" stroke-width="1.7"/>
<path d="M215.20 171.43L217.52 168.57" stroke="#75e2ba" stroke-width="1.7"/>
<path d="M305.04 184.42L306.21 187.30" stroke="#75e2ba" stroke-width="1.7"/>
<path d="M285.88 160.72L288.58 162.42" stroke="#597184" stroke-width="1.7"/>
<path d="M295.40 169.94L297.38 172.24" stroke="#75e2ba" stroke-width="1.7"/>
<path d="M223.44 164.30L225.74 161.98" stroke="#75e2ba" stroke-width="1.7"/>
<path d="M214.86 189.60L215.45 186.67" stroke="#75e2ba" stroke-width="1.7"/>
<path d="M282.18 146.48L269.16 141.62" stroke="#75e2ba" stroke-width="1.5"/>
<path d="M295.26 161.48L297.24 163.77" stroke="#75e2ba" stroke-width="1.7"/>
<path d="M230.44 164.70L232.30 162.82" stroke="#597184" stroke-width="1.7"/>
<path d="M304.79 169.17L305.96 172.06" stroke="#75e2ba" stroke-width="1.7"/>
<path d="M288.58 162.42L290.18 164.27" stroke="#597184" stroke-width="1.7"/>
<path d="M222.69 175.17L223.58 172.77" stroke="#75e2ba" stroke-width="1.7"/>
<path d="M297.38 172.24L297.94 174.63" stroke="#75e2ba" stroke-width="1.7"/>
<path d="M214.61 174.35L215.20 171.43" stroke="#75e2ba" stroke-width="1.7"/>
<path d="M253.80 88.96L259.76 88.72" stroke="#597184" stroke-width="1.7"/>
<path d="M259.76 88.72L265.69 88.87" stroke="#597184" stroke-width="1.7"/>
<path d="M306.21 187.30L305.62 190.23" stroke="#75e2ba" stroke-width="1.7"/>
<path d="M222.55 166.70L223.44 164.30" stroke="#75e2ba" stroke-width="1.7"/>
<path d="M248.05 89.57L253.80 88.96" stroke="#597184" stroke-width="1.7"/>
<path d="M265.69 88.87L271.36 89.40" stroke="#597184" stroke-width="1.7"/>
<path d="M229.72 166.65L230.44 164.70" stroke="#597184" stroke-width="1.7"/>
<path d="M297.24 163.77L297.80 166.16" stroke="#75e2ba" stroke-width="1.7"/>
<path d="M242.72 90.52L248.05 89.57" stroke="#597184" stroke-width="1.7"/>
<path d="M216.03 192.48L214.86 189.60" stroke="#75e2ba" stroke-width="1.7"/>
<path d="M290.18 164.27L290.63 166.21" stroke="#597184" stroke-width="1.7"/>
<path d="M271.36 89.40L276.56 90.28" stroke="#597184" stroke-width="1.7"/>
<path d="M223.25 177.56L222.69 175.17" stroke="#75e2ba" stroke-width="1.7"/>
<path d="M232.30 162.82L231.20 95.07" stroke="#597184" stroke-width="1.4"/>
<path d="M305.96 172.06L305.37 174.98" stroke="#75e2ba" stroke-width="1.7"/>
<path d="M238.02 91.79L242.72 90.52" stroke="#597184" stroke-width="1.7"/>
<path d="M297.94 174.63L297.05 177.03" stroke="#75e2ba" stroke-width="1.7"/>
<path d="M276.56 90.28L281.09 91.48" stroke="#597184" stroke-width="1.7"/>
<path d="M230.17 168.59L229.72 166.65" stroke="#597184" stroke-width="1.7"/>
<path d="M223.11 169.09L222.55 166.70" stroke="#75e2ba" stroke-width="1.7"/>
<path d="M215.78 177.24L214.61 174.35" stroke="#75e2ba" stroke-width="1.7"/>
<path d="M290.63 166.21L289.91 168.16" stroke="#597184" stroke-width="1.7"/>
<path d="M305.62 190.23L303.30 193.09" stroke="#75e2ba" stroke-width="1.7"/>
<path d="M297.80 166.16L296.91 168.56" stroke="#75e2ba" stroke-width="1.7"/>
<path d="M234.13 93.33L238.02 91.79" stroke="#597184" stroke-width="1.7"/>
<path d="M229.78 149.12L209.78 183.10" stroke="#75e2ba" stroke-width="1.5"/>
<path d="M281.09 91.48L284.78 92.96" stroke="#597184" stroke-width="1.7"/>
<path d="M218.91 195.21L216.03 192.48" stroke="#75e2ba" stroke-width="1.7"/>
<path d="M225.23 179.85L223.25 177.56" stroke="#75e2ba" stroke-width="1.7"/>
<path d="M231.78 170.44L230.17 168.59" stroke="#597184" stroke-width="1.7"/>
<path d="M297.05 177.03L294.75 179.35" stroke="#75e2ba" stroke-width="1.7"/>
<path d="M305.37 174.98L303.05 177.84" stroke="#75e2ba" stroke-width="1.7"/>
<path d="M289.91 168.16L288.05 170.04" stroke="#597184" stroke-width="1.7"/>
<path d="M231.20 95.07L234.13 93.33" stroke="#597184" stroke-width="1.7"/>
<path d="M225.09 171.38L223.11 169.09" stroke="#75e2ba" stroke-width="1.7"/>
<path d="M284.78 92.96L287.47 94.66" stroke="#597184" stroke-width="1.7"/>
<path d="M296.91 168.56L294.61 170.88" stroke="#75e2ba" stroke-width="1.7"/>
<path d="M218.66 179.96L215.78 177.24" stroke="#75e2ba" stroke-width="1.7"/>
<path d="M303.30 193.09L299.33 195.77" stroke="#75e2ba" stroke-width="1.7"/>
<path d="M221.79 196.90L221.48 178.26" stroke="#75e2ba" stroke-width="1.4"/>
<path d="M234.47 172.14L231.78 170.44" stroke="#597184" stroke-width="1.7"/>
<path d="M228.56 181.95L225.23 179.85" stroke="#75e2ba" stroke-width="1.7"/>
<path d="M294.75 179.35L294.61 170.88" stroke="#75e2ba" stroke-width="1.4"/>
<path d="M223.38 197.68L218.91 195.21" stroke="#75e2ba" stroke-width="1.7"/>
<path d="M209.40 199.97L221.79 196.90" stroke="#75e2ba" stroke-width="1.4"/>
<path d="M288.05 170.04L285.12 171.78" stroke="#597184" stroke-width="1.7"/>
<path d="M229.34 96.95L231.20 95.07" stroke="#597184" stroke-width="1.7"/>
<path d="M294.75 179.35L291.13 181.50" stroke="#75e2ba" stroke-width="1.7"/>
<path d="M288.86 169.30L300.34 170.78" stroke="#eabf71" stroke-width="3"/>
<path d="M221.79 196.90L230.13 200.58" stroke="#75e2ba" stroke-width="1.4"/>
<path d="M228.42 173.49L225.09 171.38" stroke="#75e2ba" stroke-width="1.7"/>
<path d="M287.47 94.66L289.08 96.52" stroke="#597184" stroke-width="1.7"/>
<path d="M303.05 177.84L299.09 180.52" stroke="#75e2ba" stroke-width="1.7"/>
<path d="M242.80 153.98L229.78 149.12" stroke="#75e2ba" stroke-width="1.5"/>
<path d="M294.61 170.88L290.99 173.03" stroke="#75e2ba" stroke-width="1.7"/>
<path d="M238.16 173.62L234.47 172.14" stroke="#597184" stroke-width="1.7"/>
<path d="M299.33 195.77L293.88 198.16" stroke="#75e2ba" stroke-width="1.7"/>
<path d="M233.11 183.78L228.56 181.95" stroke="#75e2ba" stroke-width="1.7"/>
<path d="M285.12 171.78L281.23 173.31" stroke="#597184" stroke-width="1.7"/>
<path d="M223.14 182.43L218.66 179.96" stroke="#75e2ba" stroke-width="1.7"/>
<path d="M228.62 98.90L229.34 96.95" stroke="#597184" stroke-width="1.7"/>
<path d="M223.38 197.68L223.14 182.43" stroke="#75e2ba" stroke-width="1.4"/>
<path d="M209.10 181.34L221.48 178.26" stroke="#75e2ba" stroke-width="1.4"/>
<path d="M291.13 181.50L286.32 183.40" stroke="#75e2ba" stroke-width="1.7"/>
<path d="M229.29 199.79L223.38 197.68" stroke="#75e2ba" stroke-width="1.7"/>
<path d="M209.40 199.97L209.10 181.34" stroke="#75e2ba" stroke-width="1.4"/>
<path d="M289.08 96.52L289.53 98.46" stroke="#597184" stroke-width="1.7"/>
<path d="M221.48 178.26L229.83 181.95" stroke="#75e2ba" stroke-width="1.4"/>
<path d="M242.69 174.83L238.16 173.62" stroke="#597184" stroke-width="1.7"/>
<path d="M232.97 175.31L228.42 173.49" stroke="#75e2ba" stroke-width="1.7"/>
<path d="M221.23 187.38L242.80 153.98" stroke="#75e2ba" stroke-width="1.5"/>
<path d="M281.23 173.31L276.53 174.58" stroke="#597184" stroke-width="1.7"/>
<path d="M290.99 173.03L286.18 174.93" stroke="#75e2ba" stroke-width="1.7"/>
<path d="M209.40 199.97L217.75 203.65" stroke="#75e2ba" stroke-width="1.4"/>
<path d="M288.05 170.04L286.95 102.28" stroke="#597184" stroke-width="1.4"/>
<path d="M238.71 185.27L233.11 183.78" stroke="#75e2ba" stroke-width="1.7"/>
<path d="M230.13 200.58L229.83 181.95" stroke="#75e2ba" stroke-width="1.4"/>
<path d="M288.86 169.30L287.77 102.39" stroke="#eabf71" stroke-width="2.3"/>
<path d="M299.09 180.52L293.63 182.92" stroke="#75e2ba" stroke-width="1.7"/>
<path d="M217.75 203.65L230.13 200.58" stroke="#75e2ba" stroke-width="1.4"/>
<path d="M293.88 198.16L287.14 200.19" stroke="#75e2ba" stroke-width="1.7"/>
<path d="M247.89 175.71L242.69 174.83" stroke="#597184" stroke-width="1.7"/>
<path d="M286.32 183.40L280.51 184.97" stroke="#75e2ba" stroke-width="1.7"/>
<path d="M229.07 100.83L228.62 98.90" stroke="#597184" stroke-width="1.7"/>
<path d="M276.53 174.58L271.20 175.54" stroke="#597184" stroke-width="1.7"/>
<path d="M229.04 184.54L223.14 182.43" stroke="#75e2ba" stroke-width="1.7"/>
<path d="M236.39 201.47L229.29 199.79" stroke="#75e2ba" stroke-width="1.7"/>
<path d="M238.57 176.80L232.97 175.31" stroke="#75e2ba" stroke-width="1.7"/>
<path d="M289.53 98.46L288.81 100.40" stroke="#597184" stroke-width="1.7"/>
<path d="M253.56 176.23L247.89 175.71" stroke="#597184" stroke-width="1.7"/>
<path d="M271.20 175.54L265.45 176.15" stroke="#597184" stroke-width="1.7"/>
<path d="M245.13 186.36L238.71 185.27" stroke="#75e2ba" stroke-width="1.7"/>
<path d="M286.18 174.93L280.37 176.50" stroke="#75e2ba" stroke-width="1.7"/>
<path d="M259.49 176.38L253.56 176.23" stroke="#597184" stroke-width="1.7"/>
<path d="M265.45 176.15L259.49 176.38" stroke="#597184" stroke-width="1.7"/>
<path d="M280.51 184.97L273.93 186.15" stroke="#75e2ba" stroke-width="1.7"/>
<path d="M287.14 200.19L279.38 201.76" stroke="#75e2ba" stroke-width="1.7"/>
<path d="M209.10 181.34L217.45 185.02" stroke="#75e2ba" stroke-width="1.4"/>
<path d="M293.63 182.92L286.89 184.95" stroke="#75e2ba" stroke-width="1.7"/>
<path d="M287.14 200.19L286.89 184.95" stroke="#75e2ba" stroke-width="1.4"/>
<path d="M252.14 187.01L245.13 186.36" stroke="#75e2ba" stroke-width="1.7"/>
<path d="M245.00 177.89L238.57 176.80" stroke="#75e2ba" stroke-width="1.7"/>
<path d="M244.43 202.64L236.39 201.47" stroke="#75e2ba" stroke-width="1.7"/>
<path d="M230.67 102.69L229.07 100.83" stroke="#597184" stroke-width="1.7"/>
<path d="M245.13 186.36L245.00 177.89" stroke="#75e2ba" stroke-width="1.4"/>
<path d="M217.45 185.02L229.83 181.95" stroke="#75e2ba" stroke-width="1.4"/>
<path d="M273.93 186.15L266.82 186.90" stroke="#75e2ba" stroke-width="1.7"/>
<path d="M236.15 186.22L229.04 184.54" stroke="#75e2ba" stroke-width="1.7"/>
<path d="M280.37 176.50L273.79 177.68" stroke="#75e2ba" stroke-width="1.7"/>
<path d="M217.75 203.65L217.45 185.02" stroke="#75e2ba" stroke-width="1.4"/>
<path d="M259.47 187.19L252.14 187.01" stroke="#75e2ba" stroke-width="1.7"/>
<path d="M266.82 186.90L259.47 187.19" stroke="#75e2ba" stroke-width="1.7"/>
<path d="M288.81 100.40L286.95 102.28" stroke="#597184" stroke-width="1.7"/>
<path d="M279.38 201.76L270.90 202.83" stroke="#75e2ba" stroke-width="1.7"/>
<path d="M252.01 178.54L245.00 177.89" stroke="#75e2ba" stroke-width="1.7"/>
<path d="M253.08 203.28L244.43 202.64" stroke="#75e2ba" stroke-width="1.7"/>
<path d="M273.79 177.68L266.69 178.43" stroke="#75e2ba" stroke-width="1.7"/>
<path d="M286.89 184.95L279.13 186.52" stroke="#75e2ba" stroke-width="1.7"/>
<path d="M270.90 202.83L262.02 203.34" stroke="#75e2ba" stroke-width="1.7"/>
<path d="M259.33 178.72L252.01 178.54" stroke="#75e2ba" stroke-width="1.7"/>
<path d="M262.02 203.34L253.08 203.28" stroke="#75e2ba" stroke-width="1.7"/>
<path d="M266.69 178.43L259.33 178.72" stroke="#75e2ba" stroke-width="1.7"/>
<path d="M244.18 187.40L236.15 186.22" stroke="#75e2ba" stroke-width="1.7"/>
<path d="M233.37 104.39L230.67 102.69" stroke="#597184" stroke-width="1.7"/>
<path d="M286.95 102.28L284.02 104.02" stroke="#597184" stroke-width="1.7"/>
<path d="M247.89 175.71L246.78 107.95" stroke="#597184" stroke-width="1.4"/>
<path d="M279.13 186.52L270.65 187.58" stroke="#75e2ba" stroke-width="1.7"/>
<path d="M252.83 188.03L244.18 187.40" stroke="#75e2ba" stroke-width="1.7"/>
<path d="M270.65 187.58L261.77 188.09" stroke="#75e2ba" stroke-width="1.7"/>
<path d="M261.77 188.09L252.83 188.03" stroke="#75e2ba" stroke-width="1.7"/>
<path d="M237.05 105.87L233.37 104.39" stroke="#597184" stroke-width="1.7"/>
<path d="M284.02 104.02L280.12 105.56" stroke="#597184" stroke-width="1.7"/>
<path d="M241.58 107.07L237.05 105.87" stroke="#597184" stroke-width="1.7"/>
<path d="M280.12 105.56L275.42 106.83" stroke="#597184" stroke-width="1.7"/>
<path d="M246.78 107.95L241.58 107.07" stroke="#597184" stroke-width="1.7"/>
<path d="M275.42 106.83L270.09 107.79" stroke="#597184" stroke-width="1.7"/>
<path d="M252.46 108.48L246.78 107.95" stroke="#597184" stroke-width="1.7"/>
<path d="M270.09 107.79L264.34 108.39" stroke="#597184" stroke-width="1.7"/>
<path d="M258.39 108.63L252.46 108.48" stroke="#597184" stroke-width="1.7"/>
<path d="M264.34 108.39L258.39 108.63" stroke="#597184" stroke-width="1.7"/></g></g><text x="20" y="383" fill="#75e2ba" font-size="11">L0 60 · L1 57 · L2 42 · R0 67 · R1 57 · R2 44</text></g>
<text x="30" y="520" fill="#94aabc" font-size="11">Schematic geometry · open preview.html for animation, orbit controls and SVG export</text></g></svg>